<svg width="375" height="257" viewBox="0 0 375 257" fill="none" xmlns="http://www.w3.org/2000/svg">
<path d="M0 105.584C147.466 15.1197 229.566 15.8249 375 105.584V257H0V105.584Z" fill="#F9A949"/>
<path d="M0 77.3528C145.401 6.29153 227.355 6.14 375 77.3528V157.987C349.83 133.671 367.578 201.266 329.492 164.468C291.406 127.671 258.691 54.3678 248.145 98.662C245.189 111.076 233.812 135.75 210.156 123.039C186.5 110.329 146.602 69.0061 145.801 93.4607C145 117.915 136.617 149.983 110.059 136.511C83.5 123.039 80.9154 120.74 69.8242 117.915C33.4283 108.646 19.2464 187.127 0 189V77.3528Z" fill="#825353"/>
<rect width="15.9054" height="5.04838" transform="matrix(0.885376 0.464875 -0.615485 0.788148 322.107 93.0054)" fill="#F7D5DF"/>
<rect width="14.9249" height="5.39217" rx="2.69608" transform="matrix(-0.68998 0.723829 -0.841922 -0.539599 99.8376 55.7363)" fill="#F7D5DF"/>
<rect width="16.3047" height="4.89482" transform="matrix(0.94531 0.326173 -0.456574 0.889685 24.2349 107.765)" fill="#F7D5DF"/>
<rect width="14.9249" height="5.39217" rx="2.69608" transform="matrix(-0.68998 0.723829 -0.841922 -0.539599 227.838 45.0767)" fill="#F7D5DF"/>
</svg>
