<svg width="102" height="97" viewBox="0 0 102 97" fill="none" xmlns="http://www.w3.org/2000/svg">
<path d="M2.504 36.5L1.88 35.304C1.01333 33.6053 1.1 31.924 2.14 30.26C5.01733 25.684 7.08 20.9347 8.328 16.012C8.39733 15.7347 8.276 15.596 7.964 15.596H5.52C4.72267 15.596 4.02933 15.3187 3.44 14.764C2.85067 14.1747 2.556 13.4813 2.556 12.684C2.556 11.8867 2.85067 11.1933 3.44 10.604C4.02933 10.0147 4.72267 9.72 5.52 9.72H9.056C9.368 9.72 9.524 9.564 9.524 9.252V3.636C9.524 2.83867 9.80133 2.16266 10.356 1.608C10.9453 1.01866 11.6387 0.723999 12.436 0.723999H13.164C13.9613 0.723999 14.6373 1.01866 15.192 1.608C15.7813 2.16266 16.076 2.83867 16.076 3.636V9.252C16.076 9.564 16.232 9.72 16.544 9.72H18.26C19.0573 9.72 19.7507 10.0147 20.34 10.604C20.9293 11.1933 21.224 11.8867 21.224 12.684C21.224 13.4813 20.9293 14.1747 20.34 14.764C19.7507 15.3187 19.0573 15.596 18.26 15.596H17.48C17.376 15.596 17.2893 15.648 17.22 15.752C17.1853 15.856 17.2027 15.9427 17.272 16.012C18.4507 17.988 20.2013 21.0387 22.524 25.164C22.5587 25.1987 22.6107 25.216 22.68 25.216C22.7493 25.216 22.784 25.1987 22.784 25.164V5.04C22.784 4.24267 23.0613 3.54933 23.616 2.96C24.2053 2.37066 24.8987 2.076 25.696 2.076H45.456C46.2533 2.076 46.9467 2.37066 47.536 2.96C48.1253 3.54933 48.42 4.24267 48.42 5.04V44.404C48.42 45.2013 48.1253 45.8773 47.536 46.432C46.9467 47.0213 46.2533 47.316 45.456 47.316H43.792C43.2027 47.316 42.7 47.108 42.284 46.692C41.868 46.276 41.66 45.7907 41.66 45.236C41.66 45.028 41.556 44.924 41.348 44.924H29.648C29.44 44.924 29.336 45.028 29.336 45.236C29.336 45.8253 29.128 46.3107 28.712 46.692C28.296 47.108 27.8107 47.316 27.256 47.316H25.696C24.8987 47.316 24.2053 47.0213 23.616 46.432C23.0613 45.8773 22.784 45.2013 22.784 44.404V29.428C22.784 29.3587 22.7493 29.324 22.68 29.324C22.6107 29.324 22.5587 29.3413 22.524 29.376C22.316 29.6533 22.1427 29.844 22.004 29.948C21.4493 30.4333 20.808 30.6067 20.08 30.468C19.3867 30.3293 18.884 29.9307 18.572 29.272C17.844 27.7467 17.0813 26.2213 16.284 24.696C16.2493 24.6613 16.1973 24.6613 16.128 24.696C16.0933 24.696 16.076 24.7307 16.076 24.8V44.924C16.076 45.7213 15.7813 46.3973 15.192 46.952C14.6373 47.5413 13.9613 47.836 13.164 47.836H12.436C11.6387 47.836 10.9453 47.5413 10.356 46.952C9.80133 46.3973 9.524 45.7213 9.524 44.924V28.076C9.48933 28.0413 9.43733 28.0587 9.368 28.128C8.36267 31.144 7.06267 33.9867 5.468 36.656C5.12133 37.2107 4.61867 37.4707 3.96 37.436C3.30133 37.4013 2.816 37.0893 2.504 36.5ZM29.336 8.16V14.192C29.336 14.504 29.492 14.66 29.804 14.66H41.192C41.504 14.66 41.66 14.504 41.66 14.192V8.16C41.66 7.88267 41.504 7.744 41.192 7.744H29.804C29.492 7.744 29.336 7.88267 29.336 8.16ZM29.336 20.588V26.62C29.336 26.8973 29.492 27.036 29.804 27.036H41.192C41.504 27.036 41.66 26.8973 41.66 26.62V20.588C41.66 20.276 41.504 20.12 41.192 20.12H29.804C29.492 20.12 29.336 20.276 29.336 20.588ZM29.336 32.964V38.996C29.336 39.308 29.492 39.464 29.804 39.464H41.192C41.504 39.464 41.66 39.308 41.66 38.996V32.964C41.66 32.652 41.504 32.496 41.192 32.496H29.804C29.492 32.496 29.336 32.652 29.336 32.964ZM55.024 3.74C55.648 3.18533 56.3587 2.92533 57.156 2.96C57.988 2.99466 58.6813 3.30666 59.236 3.896C60.3107 5.00533 61.9227 6.73867 64.072 9.096C64.6267 9.72 64.8693 10.448 64.8 11.28C64.7653 12.0773 64.4533 12.7533 63.864 13.308L63.812 13.412C63.2227 13.9667 62.512 14.2267 61.68 14.192C60.8827 14.1227 60.2067 13.7933 59.652 13.204C58.0573 11.436 56.4107 9.68533 54.712 7.952C54.1573 7.39733 53.88 6.72133 53.88 5.924C53.9147 5.092 54.2267 4.416 54.816 3.896L55.024 3.74ZM55.7 25.684C54.9373 25.684 54.2613 25.4067 53.672 24.852C53.1173 24.2627 52.84 23.5867 52.84 22.824C52.84 22.0613 53.1173 21.4027 53.672 20.848C54.2613 20.2587 54.9373 19.964 55.7 19.964H61.524C62.3213 19.964 62.9973 20.2587 63.552 20.848C64.1413 21.4027 64.436 22.0787 64.436 22.876V36.188C64.436 36.4307 64.5227 36.6907 64.696 36.968C65.4933 38.2853 66.516 39.256 67.764 39.88C69.012 40.504 70.9707 40.972 73.64 41.284C76.344 41.5613 80.2787 41.7 85.444 41.7H97.404C98.1667 41.7 98.808 41.9773 99.328 42.532C99.848 43.0867 100.073 43.728 100.004 44.456C99.9693 45.2187 99.6747 45.86 99.12 46.38C98.5653 46.9 97.8893 47.16 97.092 47.16H85.6C79.048 47.16 74.0213 46.8307 70.52 46.172C67.0533 45.548 64.436 44.4213 62.668 42.792C62.4253 42.6187 62.2 42.6013 61.992 42.74C60.536 44.0227 59.0627 45.2187 57.572 46.328C56.9133 46.7787 56.2027 46.9173 55.44 46.744C54.6773 46.5707 54.1053 46.1373 53.724 45.444L53.516 45.08C53.1 44.3867 52.9787 43.624 53.152 42.792C53.3253 41.96 53.7587 41.3187 54.452 40.868C55.2147 40.348 56.2893 39.5333 57.676 38.424C57.9187 38.2507 58.04 38.008 58.04 37.696V26.1C58.04 25.8227 57.884 25.684 57.572 25.684H55.7ZM78.788 31.716C79.1 31.716 79.256 31.56 79.256 31.248V27.452C79.256 27.1747 79.1 27.036 78.788 27.036H73.172C72.8947 27.036 72.756 27.1747 72.756 27.452V37.176C72.756 37.9733 72.4613 38.6667 71.872 39.256C71.2827 39.8453 70.5893 40.14 69.792 40.14H69.48C68.6827 40.14 67.9893 39.8453 67.4 39.256C66.8107 38.6667 66.516 37.9733 66.516 37.176V24.904C66.516 24.1067 66.8107 23.4133 67.4 22.824C67.9893 22.2347 68.6827 21.94 69.48 21.94H78.788C79.1 21.94 79.256 21.784 79.256 21.472V20.38C79.256 20.068 79.1 19.912 78.788 19.912H74.576H71.404C70.6067 19.912 69.9133 19.6347 69.324 19.08C68.7347 18.4907 68.44 17.7973 68.44 17V4.416C68.44 3.61866 68.7347 2.94266 69.324 2.388C69.9133 1.79867 70.6067 1.504 71.404 1.504H94.96C95.7573 1.504 96.4507 1.79867 97.04 2.388C97.6293 2.94266 97.924 3.61866 97.924 4.416V17C97.924 17.7973 97.6293 18.4907 97.04 19.08C96.4507 19.6347 95.7573 19.912 94.96 19.912H91.58H86.536C86.2587 19.912 86.12 20.068 86.12 20.38V21.472C86.12 21.784 86.2587 21.94 86.536 21.94H96.676C97.4733 21.94 98.1667 22.2347 98.756 22.824C99.3453 23.4133 99.64 24.1067 99.64 24.904V32.964C99.64 36.1533 99.3627 38.1293 98.808 38.892C98.2533 39.6547 96.8493 40.036 94.596 40.036C94.284 40.036 93.088 40.0013 91.008 39.932C90.1413 39.8973 89.396 39.6027 88.772 39.048C88.148 38.4587 87.8013 37.7307 87.732 36.864L87.628 35.772C87.628 35.668 87.576 35.5813 87.472 35.512C87.368 35.408 87.264 35.3733 87.16 35.408C83.1733 36.0667 79.7067 36.5347 76.76 36.812C76.0667 36.8813 75.4427 36.708 74.888 36.292C74.368 35.8413 74.0733 35.2693 74.004 34.576C73.9347 33.9173 74.108 33.328 74.524 32.808C74.9747 32.288 75.5467 31.9933 76.24 31.924C77.3493 31.8547 78.1987 31.7853 78.788 31.716ZM86.12 7.172V8.94C86.12 9.21733 86.2587 9.356 86.536 9.356H91.164C91.4413 9.356 91.58 9.21733 91.58 8.94V7.172C91.58 6.89467 91.4413 6.756 91.164 6.756H86.536C86.2587 6.756 86.12 6.89467 86.12 7.172ZM86.12 13.516V15.232C86.12 15.544 86.2587 15.7 86.536 15.7H91.164C91.4413 15.7 91.58 15.544 91.58 15.232V13.516C91.58 13.2387 91.4413 13.1 91.164 13.1H86.536C86.2587 13.1 86.12 13.2387 86.12 13.516ZM85.236 27.452V30.572C85.236 30.884 85.3747 31.0053 85.652 30.936C85.756 30.936 85.912 30.9187 86.12 30.884C86.3627 30.8493 86.536 30.8147 86.64 30.78C86.8827 30.78 86.9693 30.6587 86.9 30.416C86.7267 29.896 86.7613 29.3933 87.004 28.908C87.2813 28.4227 87.6973 28.1107 88.252 27.972C88.876 27.8333 89.4653 27.92 90.02 28.232C90.5747 28.5093 90.956 28.9427 91.164 29.532C91.8227 31.3693 92.36 33.016 92.776 34.472C92.8107 34.6107 92.88 34.7147 92.984 34.784C93.1227 34.8533 93.2267 34.836 93.296 34.732C93.3653 34.5933 93.4 34.1427 93.4 33.38V27.452C93.4 27.1747 93.2613 27.036 92.984 27.036H85.652C85.3747 27.036 85.236 27.1747 85.236 27.452ZM74.576 7.172V8.94C74.576 9.21733 74.7147 9.356 74.992 9.356H79.62C79.932 9.356 80.088 9.21733 80.088 8.94V7.172C80.088 6.89467 79.932 6.756 79.62 6.756H74.992C74.7147 6.756 74.576 6.89467 74.576 7.172ZM74.992 15.7H79.62C79.932 15.7 80.088 15.544 80.088 15.232V13.516C80.088 13.2387 79.932 13.1 79.62 13.1H74.992C74.7147 13.1 74.576 13.2387 74.576 13.516V15.232C74.576 15.544 74.7147 15.7 74.992 15.7ZM3.492 67.652C2.72933 67.652 2.05333 67.3747 1.464 66.82C0.909333 66.2307 0.632 65.5547 0.632 64.792C0.632 64.0293 0.909333 63.3707 1.464 62.816C2.05333 62.2267 2.72933 61.932 3.492 61.932H7.808C8.12 61.932 8.276 61.776 8.276 61.464V58.188C8.276 57.8413 8.12 57.7027 7.808 57.772C7.11467 57.876 6.04 57.9973 4.584 58.136C3.82133 58.2053 3.128 57.9973 2.504 57.512C1.91467 56.992 1.58533 56.3333 1.516 55.536C1.44667 54.7387 1.65467 54.0453 2.14 53.456C2.66 52.832 3.30133 52.4853 4.064 52.416C9.19467 51.8267 13.7013 50.96 17.584 49.816C18.3813 49.5733 19.144 49.6253 19.872 49.972C20.6347 50.3187 21.1547 50.8733 21.432 51.636L21.536 51.844C21.8133 52.6067 21.7787 53.352 21.432 54.08C21.0853 54.808 20.5307 55.2933 19.768 55.536C18.4853 55.9173 17.0467 56.264 15.452 56.576C15.1747 56.6453 15.036 56.8187 15.036 57.096V61.464C15.036 61.776 15.1747 61.932 15.452 61.932H19.56C20.3573 61.932 21.0333 62.2267 21.588 62.816C22.1427 63.3707 22.42 64.0293 22.42 64.792C22.42 65.5547 22.1427 66.2307 21.588 66.82C21.0333 67.3747 20.3573 67.652 19.56 67.652H15.452C15.1747 67.652 15.036 67.7907 15.036 68.068V73.216C15.036 73.528 15.1747 73.684 15.452 73.684H18.728C19.5253 73.684 20.2187 73.9787 20.808 74.568C21.3973 75.1227 21.692 75.7987 21.692 76.596V91.884C21.692 92.6813 21.3973 93.3573 20.808 93.912C20.2187 94.5013 19.5253 94.796 18.728 94.796H17.584C17.0293 94.796 16.5613 94.6053 16.18 94.224C15.8333 93.8773 15.66 93.4267 15.66 92.872C15.66 92.664 15.556 92.56 15.348 92.56H8.64C8.39733 92.56 8.276 92.6813 8.276 92.924C8.276 93.6173 8.016 94.224 7.496 94.744C7.01067 95.264 6.42133 95.524 5.728 95.524H4.896C4.09867 95.524 3.40533 95.2293 2.816 94.64C2.22667 94.0507 1.932 93.3573 1.932 92.56V76.596C1.932 75.7987 2.22667 75.1227 2.816 74.568C3.40533 73.9787 4.09867 73.684 4.896 73.684H7.808C8.12 73.684 8.276 73.528 8.276 73.216V68.068C8.276 67.7907 8.12 67.652 7.808 67.652H3.492ZM8.692 78.78C8.41467 78.78 8.276 78.936 8.276 79.248V86.996C8.276 87.308 8.41467 87.464 8.692 87.464H15.192C15.504 87.464 15.66 87.308 15.66 86.996V79.248C15.66 78.936 15.504 78.78 15.192 78.78H8.692ZM47.068 55.744C47.796 55.744 48.42 56.004 48.94 56.524C49.46 57.0093 49.72 57.616 49.72 58.344V58.812C49.72 59.54 49.46 60.164 48.94 60.684C48.42 61.204 47.796 61.464 47.068 61.464C46.8253 61.464 46.704 61.5853 46.704 61.828V92.664C46.704 93.4613 46.4093 94.1373 45.82 94.692C45.2307 95.2813 44.5373 95.576 43.74 95.576H42.492C41.7987 95.576 41.192 95.316 40.672 94.796C40.1867 94.3107 39.944 93.7213 39.944 93.028C39.944 92.7853 39.8053 92.664 39.528 92.664H31.312C31.0347 92.664 30.896 92.7853 30.896 93.028C30.896 93.7213 30.636 94.3107 30.116 94.796C29.6307 95.316 29.0413 95.576 28.348 95.576H27.1C26.3027 95.576 25.6093 95.2813 25.02 94.692C24.4307 94.1373 24.136 93.4613 24.136 92.664V61.828C24.136 61.5853 24.0147 61.464 23.772 61.464C23.0787 61.464 22.4893 61.2213 22.004 60.736C21.5187 60.2507 21.276 59.6613 21.276 58.968V58.188C21.276 57.5293 21.5187 56.9573 22.004 56.472C22.4893 55.9867 23.0787 55.744 23.772 55.744C24.0147 55.744 24.136 55.6053 24.136 55.328V51.896C24.136 51.0987 24.4307 50.4227 25.02 49.868C25.6093 49.2787 26.3027 48.984 27.1 48.984H27.984C28.7813 48.984 29.4573 49.2787 30.012 49.868C30.6013 50.4227 30.896 51.0987 30.896 51.896V55.276C30.896 55.588 31.052 55.744 31.364 55.744H39.476C39.788 55.744 39.944 55.588 39.944 55.276V51.896C39.944 51.0987 40.2213 50.4227 40.776 49.868C41.3653 49.2787 42.0587 48.984 42.856 48.984H43.74C44.5373 48.984 45.2307 49.2787 45.82 49.868C46.4093 50.4227 46.704 51.0987 46.704 51.896V55.328C46.704 55.6053 46.8253 55.744 47.068 55.744ZM39.944 86.476V77.064C39.944 76.752 39.788 76.596 39.476 76.596H31.364C31.052 76.596 30.896 76.752 30.896 77.064V86.476C30.896 86.788 31.052 86.944 31.364 86.944H39.476C39.788 86.944 39.944 86.788 39.944 86.476ZM39.944 70.616V61.88C39.944 61.6027 39.788 61.464 39.476 61.464H31.364C31.052 61.464 30.896 61.6027 30.896 61.88V70.616C30.896 70.928 31.052 71.084 31.364 71.084H39.476C39.788 71.084 39.944 70.928 39.944 70.616ZM61.264 78.468C61.5067 78.468 61.628 78.312 61.628 78V76.544C61.628 76.232 61.4893 76.076 61.212 76.076H55.44C54.816 76.076 54.2787 75.8507 53.828 75.4C53.3773 74.9493 53.152 74.412 53.152 73.788C53.152 73.164 53.3773 72.6267 53.828 72.176C54.2787 71.7253 54.816 71.5 55.44 71.5H61.212C61.4893 71.5 61.628 71.3613 61.628 71.084V70.2C61.628 69.9227 61.4893 69.784 61.212 69.784H58.352H56.636C55.8387 69.784 55.1453 69.4893 54.556 68.9C53.9667 68.3107 53.672 67.6173 53.672 66.82V52.52C53.672 51.7227 53.9667 51.0293 54.556 50.44C55.1453 49.8507 55.8387 49.556 56.636 49.556H73.276C74.0733 49.556 74.7493 49.8507 75.304 50.44C75.8933 51.0293 76.188 51.7227 76.188 52.52V66.82C76.188 67.6173 75.8933 68.3107 75.304 68.9C74.7493 69.4893 74.0733 69.784 73.276 69.784H71.716H68.856C68.544 69.784 68.388 69.9227 68.388 70.2V71.084C68.388 71.3613 68.544 71.5 68.856 71.5H74.004C74.628 71.5 75.1653 71.7253 75.616 72.176C76.0667 72.6267 76.292 73.164 76.292 73.788C76.292 74.412 76.0667 74.9493 75.616 75.4C75.1653 75.8507 74.628 76.076 74.004 76.076H68.856C68.544 76.076 68.388 76.232 68.388 76.544V77.532C68.388 77.8093 68.544 77.948 68.856 77.948C70.104 77.8787 71.768 77.74 73.848 77.532C74.5067 77.4627 75.0787 77.6533 75.564 78.104C76.0493 78.5547 76.292 79.1093 76.292 79.768C76.292 80.4613 76.0667 81.0853 75.616 81.64C75.1653 82.16 74.5933 82.4547 73.9 82.524C67.348 83.2173 61.2813 83.72 55.7 84.032C54.972 84.0667 54.3307 83.8413 53.776 83.356C53.256 82.8707 52.9613 82.264 52.892 81.536C52.8573 80.808 53.0827 80.184 53.568 79.664C54.0533 79.1093 54.66 78.8147 55.388 78.78C57.052 78.676 59.0107 78.572 61.264 78.468ZM67.088 55.432V61.464C67.1227 61.4987 67.1747 61.4987 67.244 61.464C67.556 60.632 67.8507 59.6787 68.128 58.604C68.3013 57.876 68.6827 57.304 69.272 56.888C69.896 56.472 70.572 56.316 71.3 56.42C71.5773 56.4893 71.716 56.368 71.716 56.056V55.432C71.716 55.1547 71.56 55.016 71.248 55.016H67.556C67.244 55.016 67.088 55.1547 67.088 55.432ZM67.088 64.064V65.104C67.088 65.3813 67.244 65.52 67.556 65.52H71.248C71.56 65.52 71.716 65.3813 71.716 65.104V61.048C71.6813 61.048 71.6293 61.0653 71.56 61.1C71.4907 61.3773 71.4213 61.62 71.352 61.828C71.1093 62.5907 70.6067 63.1627 69.844 63.544C69.0813 63.9253 68.3013 63.9947 67.504 63.752C67.2267 63.6827 67.088 63.7867 67.088 64.064ZM58.352 55.432V56.264C58.352 56.5413 58.4733 56.6453 58.716 56.576C59.444 56.4027 60.1373 56.4893 60.796 56.836C61.4547 57.1827 61.9053 57.7027 62.148 58.396C62.2867 58.7773 62.512 59.5747 62.824 60.788C62.824 60.8227 62.8413 60.84 62.876 60.84C62.9107 60.84 62.928 60.8227 62.928 60.788V55.432C62.928 55.1547 62.7893 55.016 62.512 55.016H58.82C58.508 55.016 58.352 55.1547 58.352 55.432ZM58.82 65.52H62.512C62.7893 65.52 62.928 65.3813 62.928 65.104V64.272C62.928 63.96 62.7893 63.8387 62.512 63.908C61.7493 64.0813 61.0213 63.96 60.328 63.544C59.6347 63.128 59.184 62.5213 58.976 61.724C58.768 60.892 58.5947 60.268 58.456 59.852C58.4213 59.8867 58.3867 59.904 58.352 59.904V65.104C58.352 65.3813 58.508 65.52 58.82 65.52ZM54.088 95.836C53.3947 95.6973 52.8747 95.2987 52.528 94.64C52.216 94.016 52.164 93.3573 52.372 92.664C52.9613 90.6533 53.4293 88.7293 53.776 86.892C53.9147 86.1987 54.244 85.6613 54.764 85.28C55.3187 84.864 55.9253 84.6907 56.584 84.76C57.2773 84.864 57.832 85.1933 58.248 85.748C58.6987 86.3027 58.872 86.9093 58.768 87.568C58.56 89.2667 58.1093 91.3813 57.416 93.912C57.208 94.64 56.7747 95.1773 56.116 95.524C55.492 95.9053 54.816 96.0093 54.088 95.836ZM59.912 93.132C59.808 91.3987 59.652 89.5613 59.444 87.62C59.3747 86.9613 59.548 86.372 59.964 85.852C60.38 85.2973 60.9347 84.968 61.628 84.864C62.3213 84.76 62.928 84.916 63.448 85.332C64.0027 85.7133 64.3147 86.2333 64.384 86.892C64.4533 87.3427 64.6267 89.18 64.904 92.404C64.9733 93.132 64.7827 93.7733 64.332 94.328C63.8813 94.8827 63.292 95.212 62.564 95.316C61.9053 95.42 61.316 95.2467 60.796 94.796C60.276 94.38 59.9813 93.8253 59.912 93.132ZM66.204 85.54C66.5853 85.02 67.1053 84.708 67.764 84.604C68.4227 84.5 69.012 84.6387 69.532 85.02C70.0867 85.4013 70.4333 85.9213 70.572 86.58C70.78 87.5507 71.0227 89.0933 71.3 91.208C71.3693 91.9013 71.196 92.508 70.78 93.028C70.3987 93.548 69.8787 93.86 69.22 93.964C68.5613 94.068 67.972 93.912 67.452 93.496C66.9667 93.1147 66.6893 92.5947 66.62 91.936C66.308 89.7173 66.0653 88.1573 65.892 87.256C65.7533 86.632 65.8573 86.06 66.204 85.54ZM73.64 84.292C74.264 84.188 74.8533 84.292 75.408 84.604C75.9627 84.916 76.3093 85.384 76.448 86.008C76.7947 87.2213 77.1067 88.5387 77.384 89.96C77.5227 90.584 77.4013 91.156 77.02 91.676C76.6733 92.196 76.188 92.508 75.564 92.612C74.9747 92.716 74.42 92.5773 73.9 92.196C73.38 91.8147 73.068 91.3293 72.964 90.74C72.6173 89.0067 72.3227 87.7067 72.08 86.84C71.9067 86.2507 71.976 85.7133 72.288 85.228C72.6347 84.708 73.0853 84.396 73.64 84.292ZM81.076 95.836C80.2787 95.836 79.5853 95.5413 78.996 94.952C78.4067 94.3973 78.112 93.7213 78.112 92.924V72.124C78.112 71.3267 78.4067 70.6333 78.996 70.044C79.5853 69.4547 80.2787 69.16 81.076 69.16H83.676C83.9533 69.16 84.092 69.004 84.092 68.692V51.116C84.092 50.3187 84.3867 49.6427 84.976 49.088C85.5653 48.4987 86.2587 48.204 87.056 48.204H88.096C88.8933 48.204 89.5693 48.4987 90.124 49.088C90.7133 49.6427 91.008 50.3187 91.008 51.116V54.08C91.008 54.3573 91.164 54.496 91.476 54.496H98.548C99.3453 54.496 100.039 54.7907 100.628 55.38C101.217 55.9693 101.512 56.6627 101.512 57.46C101.512 58.2573 101.217 58.9507 100.628 59.54C100.039 60.1293 99.3453 60.424 98.548 60.424H91.476C91.164 60.424 91.008 60.5627 91.008 60.84V68.692C91.008 69.004 91.164 69.16 91.476 69.16H97.508C98.3053 69.16 98.9987 69.4547 99.588 70.044C100.177 70.6333 100.472 71.3267 100.472 72.124V92.924C100.472 93.7213 100.177 94.3973 99.588 94.952C98.9987 95.5413 98.3053 95.836 97.508 95.836H96.26C95.5667 95.836 94.96 95.576 94.44 95.056C93.9547 94.5707 93.712 93.9813 93.712 93.288C93.712 93.0453 93.5907 92.924 93.348 92.924H85.184C84.9067 92.924 84.768 93.0453 84.768 93.288C84.768 93.9813 84.508 94.5707 83.988 95.056C83.5027 95.576 82.9133 95.836 82.22 95.836H81.076ZM84.768 75.504V86.736C84.768 87.048 84.924 87.204 85.236 87.204H93.244C93.556 87.204 93.712 87.048 93.712 86.736V75.504C93.712 75.192 93.556 75.036 93.244 75.036H85.236C84.924 75.036 84.768 75.192 84.768 75.504Z" fill="url(#paint0_linear_217_3247)"/>
<defs>
<linearGradient id="paint0_linear_217_3247" x1="51" y1="-1" x2="51" y2="95" gradientUnits="userSpaceOnUse">
<stop stop-color="#825353" stop-opacity="0.9"/>
<stop offset="0.501041" stop-color="#825353"/>
<stop offset="1" stop-color="#825353" stop-opacity="0.64"/>
</linearGradient>
</defs>
</svg>
