<svg width="1920" height="444" viewBox="0 0 1920 444" fill="none" xmlns="http://www.w3.org/2000/svg">
<path d="M0 237.964C755.028 114.866 1175.38 115.826 1920 237.964V444H0V237.964Z" fill="#F9A949"/>
<path d="M0 200.383C744.094 18.69 1163.67 18.3884 1920 200.383V374.162C1791.13 321.757 1882 467.435 1687 388.131C1492 308.826 1324.5 150.846 1270.5 246.307C1255.37 273.062 1238.5 450.724 1076 298.844C1015.24 242.054 821 71.0844 746.5 235.098C721.747 289.593 914 420.659 563.5 327.878C481.636 306.208 414.287 293.889 357.5 287.801C171.153 267.825 98.5415 436.963 0 441V200.383Z" fill="#825353"/>
<rect width="55.1189" height="14.3006" rx="7.15032" transform="matrix(0.88599 0.463704 -0.602605 0.79804 1716.84 361.547)" fill="#F7D5DF"/>
<rect width="54.5015" height="14.4859" transform="matrix(0.853586 -0.520952 0.660854 0.750515 1039.98 232.087)" fill="#F7D5DF"/>
<rect width="54.5015" height="14.4859" rx="7.24296" transform="matrix(0.853586 -0.520952 0.660854 0.750515 594.032 387.412)" fill="#F7D5DF"/>
<rect width="57.6759" height="13.4827" rx="6.74134" transform="matrix(0.999731 0.0232073 -0.033473 0.99944 202.851 243.184)" fill="#F7D5DF"/>
<rect width="55.0491" height="14.3218" rx="7.16092" transform="matrix(0.882437 0.47043 -0.609667 0.792658 230.731 387)" fill="#F7D5DF"/>
</svg>
